<?xml version="1.0" encoding="UTF-8"?>
<svg width="48px" height="48px" viewBox="0 0 48 48" version="1.1" xmlns="http://www.w3.org/2000/svg" xmlns:xlink="http://www.w3.org/1999/xlink">
    <title>myicons-828</title>
    <g id="Profile" stroke="none" stroke-width="1" fill="none" fill-rule="evenodd">
        <g id="contact" transform="translate(-832.000000, -690.000000)">
            <g id="Group-17" transform="translate(260.000000, 527.000000)">
                <g id="Group-14" transform="translate(433.000000, 158.000000)">
                    <g id="myicons-828" transform="translate(139.000000, 5.000000)">
                        <rect id="Rectangle" x="0" y="0" width="48" height="48"/>
                        <g id="Group-11" transform="translate(6.000000, 10.000000)" stroke-linecap="round" stroke-linejoin="round">
                            <path d="M0,3.564 L0,3.564 C0,4.746 0.586,5.852 1.564,6.514 L13.526,14.62 C16.236,16.456 19.792,16.456 22.502,14.62 L34.434,6.532 C35.414,5.872 36,4.766 36,3.584 L36,3.564 C36,1.596 34.404,-3.0375702e-13 32.436,-3.0375702e-13 L3.564,-3.0375702e-13 C1.596,-3.0375702e-13 0,1.596 0,3.564 Z" id="Path" stroke="#131B1F" stroke-width="2"/>
                            <path d="M0,4 L0,24 C0,26.21 1.79,28 4,28 L32,28 C34.21,28 36,26.21 36,24 L36,4" id="Path" stroke="#131B1F" stroke-width="2"/>
                            <line x1="1.172" y1="26.828" x2="13.452" y2="14.548" id="Path" stroke="#131B1F" stroke-width="2"/>
                            <line x1="22.562" y1="14.562" x2="34.822" y2="26.822" id="Path" stroke="#323232" stroke-width="1.5"/>
                        </g>
                    </g>
                </g>
            </g>
        </g>
    </g>
</svg>